<svg xmlns="http://www.w3.org/2000/svg" width="31.94" height="31.9" viewBox="0 0 31.94 31.9">
  <defs>
    <style>
      .cls-1 {
        fill: #a32135;
        fill-rule: evenodd;
      }
    </style>
  </defs>
  <path id="形状_994" data-name="形状 994" class="cls-1" d="M1411.57,10573.8l-0.23-.5,0.63-.6,0.49,0.4,0.35-.3-2.1-1.4-0.37.3,0.89,2.4Zm-0.82-1.9h0l0.94,0.6-0.49.4Zm-0.56,3.4-1.41-1.2h0.01l1.92,0.6,0.33-.4-1.8-1.5-0.26.3,1.42,1.2h-0.01l-1.93-.6-0.33.4,1.81,1.5Zm-4.16,9.2a0.509,0.509,0,0,0,.37-0.2,0.328,0.328,0,0,0,.22-0.3l0.1-.2c0.02,0,.05-0.1.07-0.1,0.02-.1.04-0.1,0.07-0.1,0.02-.1.05-0.1,0.08-0.1h0.27c0.04,0,.08,0,0.11.1,0.03,0,.06,0,0.07.1a0.418,0.418,0,0,1,.04.1,0.769,0.769,0,0,1-.03.3,0.564,0.564,0,0,1-.07.2h0.38a0.927,0.927,0,0,0,.06-0.5,1.149,1.149,0,0,0-.07-0.4,0.447,0.447,0,0,1-.15-0.2,0.243,0.243,0,0,0-.24-0.1,0.388,0.388,0,0,0-.32-0.1,0.214,0.214,0,0,0-.22.1,0.145,0.145,0,0,0-.16.1,0.113,0.113,0,0,0-.12.1,1.865,1.865,0,0,0-.1.2l-0.12.3c-0.02,0-.03,0-0.05.1h-0.06c-0.02.1-.05,0.1-0.08,0.1h-0.32a0.885,0.885,0,0,1-.1-0.3,0.4,0.4,0,0,1,.02-0.2,0.376,0.376,0,0,1,.05-0.2h-0.37a0.8,0.8,0,0,0-.03.2,1.007,1.007,0,0,0-.01.3,1.088,1.088,0,0,0,.07.3,0.811,0.811,0,0,0,.14.2,0.207,0.207,0,0,0,.22.1,0.311,0.311,0,0,0,.28.1m-0.03-5.2a1.875,1.875,0,0,0,.32.3,0.771,0.771,0,0,0,.45.2,0.869,0.869,0,0,0,.48.1c0.16,0,.3-0.1.43-0.1a3.452,3.452,0,0,0,.34-0.3,0.764,0.764,0,0,0,.22-0.4,1.594,1.594,0,0,0,.06-0.3,0.578,0.578,0,0,0,0-.2l-0.39-.1a0.352,0.352,0,0,1,.03.2,1.032,1.032,0,0,1-.04.3,0.709,0.709,0,0,0-.11.2,1.355,1.355,0,0,1-.21.2h-0.69a1.928,1.928,0,0,1-.36-0.2,0.875,0.875,0,0,1-.22-0.2,0.86,0.86,0,0,1-.09-0.3,0.474,0.474,0,0,1,.03-0.2,1.254,1.254,0,0,1,.12-0.3,1.27,1.27,0,0,0,.12-0.1l-0.37-.1a0.634,0.634,0,0,1-.12.1l-0.12.3a1.29,1.29,0,0,0-.03.5,0.673,0.673,0,0,0,.15.4m-0.34,2.8,2.03,0.1,0.02-.4-2.03-.1,0.03-.6h-0.35l-0.07,1.5h0.34Zm3.01-4.3-0.95-.4,0.3-.6,0.95,0.4,0.19-.4-2.15-1-0.18.4,0.87,0.4-0.31.6-0.87-.4-0.18.4,2.14,1Zm1-1.8-2-1.3-0.23.4,2,1.3Zm20.06,0.6,2.03-1.2-0.23-.4-2.03,1.3Zm0.65,1.3,2.47-.3-0.19-.4-1.87.3h0l1.47-1.2-0.19-.4-1.88,1.6Zm-1.95-3.1,1.44-1.1h0l-0.95,1.7,0.33,0.4,1.85-1.4-0.25-.4-1.45,1.2h0l0.95-1.8-0.32-.4-1.85,1.5Zm2.79,6.1,1.01-.1,0.01,0.1a0.234,0.234,0,0,1-.03.2,0.408,0.408,0,0,1-.18.2l-0.74.3,0.06,0.5,0.86-.4a0.127,0.127,0,0,1,.13-0.1,0.607,0.607,0,0,0,.07-0.1c0.02,0,.03,0,0.03-0.1h0.02a0.822,0.822,0,0,0,.22.3c0.1,0,.24.1,0.39,0.1a0.358,0.358,0,0,1,.28-0.1,1.006,1.006,0,0,0,.17-0.2,0.882,0.882,0,0,0,.09-0.2,1.5,1.5,0,0,0,0-.3l-0.08-.8-2.36.3Zm2.03-.2,0.02,0.2a0.625,0.625,0,0,1-.04.3c-0.04.1-.12,0.1-0.26,0.1a0.286,0.286,0,0,1-.28-0.1,0.191,0.191,0,0,1-.12-0.2l-0.02-.2Zm-6.26-7.3a2.73,2.73,0,0,0,.21.3c0.09,0,.18.1,0.27,0.1a0.358,0.358,0,0,0,.3.1c0.1,0,.2-0.1.3-0.1,0.11-.1.21-0.2,0.31-0.3l1.01-1.1-0.33-.3-1.01,1.1a0.532,0.532,0,0,1-.33.3,0.338,0.338,0,0,1-.29-0.1,0.353,0.353,0,0,1,.06-0.6l1-1.2-0.33-.3-1,1.2a0.914,0.914,0,0,0-.21.3,0.634,0.634,0,0,0-.05.3,0.86,0.86,0,0,0,.09.3m4.1,6.7,0.34-.1-0.23-.8,0.68-.2,0.2,0.8,0.34-.1-0.21-.8,0.61-.1,0.22,0.8,0.33-.1-0.33-1.2-2.29.6Zm-10.57-11.3h0.01l0.31,2,0.31,0.1,0.84-1.9H1422l-0.25,2h0.39l0.3-2.3-0.62-.1-0.73,1.7h0l-0.26-1.9h-0.65l-0.3,2.3,0.39,0.1Zm-4.85,1.9a2.691,2.691,0,0,0,.29.3c0.11,0.1.22,0.1,0.35,0.2a0.5,0.5,0,0,0,.36-0.1,0.409,0.409,0,0,0,.33-0.1,1.577,1.577,0,0,0,.24-0.3,0.765,0.765,0,0,0,.11-0.4,2.434,2.434,0,0,0-.05-0.6,5.319,5.319,0,0,0-.21-0.5q-0.135-.15-0.3-0.3a0.442,0.442,0,0,0-.34-0.1,0.266,0.266,0,0,0-.37,0c-0.12,0-.23.1-0.32,0.1a1.326,1.326,0,0,0-.25.3,1.2,1.2,0,0,0-.11.4,2.041,2.041,0,0,0,.06.6,1.3,1.3,0,0,0,.21.5m0.2-1.3a0.239,0.239,0,0,1,.12-0.2,0.156,0.156,0,0,1,.17-0.1h0.2c0.07,0,.13.1,0.19,0.1,0.06,0.1.12,0.1,0.17,0.2a2.466,2.466,0,0,0,.14.4,2.136,2.136,0,0,1,.06.5,0.262,0.262,0,0,1-.04.2,0.235,0.235,0,0,1-.11.2,0.174,0.174,0,0,1-.18.1h-0.2a0.18,0.18,0,0,1-.19-0.1,0.319,0.319,0,0,1-.17-0.2c-0.05-.1-0.1-0.3-0.14-0.4a2.127,2.127,0,0,1-.06-0.4,1.032,1.032,0,0,1,.04-0.3m2.53,1.4-0.07-1h0.31a1.214,1.214,0,0,1,.14.2l0.28,0.8,0.47-.1-0.37-.8a1.587,1.587,0,0,1-.07-0.2h-0.07c-0.03-.1-0.05-0.1-0.07-0.1h-0.07a0.429,0.429,0,0,0,.31-0.2,0.52,0.52,0,0,0,.11-0.4,1.628,1.628,0,0,0-.07-0.3,0.444,0.444,0,0,1-.16-0.2,0.251,0.251,0,0,1-.23-0.1h-0.29l-0.74.1,0.16,2.3h0.43Zm0.04-2h0.29a0.383,0.383,0,0,1,.12.3,0.44,0.44,0,0,1-.09.3,1.571,1.571,0,0,1-.27.1h-0.18l-0.05-.7h0.18Zm7.35,3.3-0.69-.3,0.95-1.8-0.39-.2-1.11,2.1,1.08,0.6Zm-11.63-.1-0.77-1.7h0.01l1.49,1.4,0.47-.2-0.99-2.2-0.36.2,0.78,1.7h-0.01l-1.49-1.4-0.48.2,1,2.2Zm8.66-.8,0.35-.5,0.77,0.3-0.03.6,0.42,0.1,0.06-2.4-0.45-.2-1.53,2Zm1.21-1.7h0.01l-0.08,1.2-0.6-.2Zm-0.66,26.1c-0.1,0-.1.1-0.1,0.2v0.1a1.044,1.044,0,0,1-.49.4h-0.07a0.378,0.378,0,0,1-.32.1c-0.06,0-.12-0.1-0.13-0.3-0.01-.1.01-0.1,0.06-0.1,0.02-.1.03-0.1,0.04,0a0.278,0.278,0,0,0,.17-0.1c0.01,0,.01,0,0.01-0.1a0.355,0.355,0,0,1,.02-0.1l0.04-.1h0.02a0.4,0.4,0,0,0-.1-0.3,0.2,0.2,0,0,0-.31,0,0.944,0.944,0,0,0-.45.3,0.826,0.826,0,0,1-.36.2h-0.17a0.349,0.349,0,0,0-.1.2,0.34,0.34,0,0,0-.01.1,0.279,0.279,0,0,1-.03.2h-0.08a0.457,0.457,0,0,1,.02-0.2l0.01-.1c0-.1,0-0.1.01-0.1a0.507,0.507,0,0,1,.35-0.3,0.244,0.244,0,0,0,.2-0.2c0.04,0-.03-0.1-0.08-0.1h-0.01a0.251,0.251,0,0,0-.23-0.1c-0.07.1-.14,0.2-0.22,0.3a0.378,0.378,0,0,1-.2.2h-0.03c-0.14.2-.31,0.4-0.29,0.4,0,0.1.01,0.1,0.03,0.1a1.275,1.275,0,0,0,.17-0.1c0.04-.1.08-0.1,0.1-0.1h0.02c0.01,0,0,0-.02.1h-0.01a0.283,0.283,0,0,0-.06.2,0.178,0.178,0,0,0,.09.2l0.06,0.1a0.211,0.211,0,0,1,.04.1h0.01c0.04,0.1.06,0.1,0.08,0.1h0.04c0.03,0,.03.1,0.01,0.1h-0.11a0.143,0.143,0,0,0-.08.1l-0.01.1a0.131,0.131,0,0,0,.12.2c0.05,0.1.1,0.1,0.18,0,0.08,0,.08-0.1.08-0.3h0a1.9,1.9,0,0,1,.03-0.4c0.03,0,.01-0.1,0-0.1l-0.01-.1a0.428,0.428,0,0,1,.12-0.2c0.03,0,.06,0,0.09-0.1l0.08-.1a2.018,2.018,0,0,1,.29-0.3,0.121,0.121,0,0,0,.13-0.1c0.06,0,.12-0.1.18-0.1h0.01a0.214,0.214,0,0,1,.2-0.1,0.262,0.262,0,0,1,.04.2h-0.08c0-.1-0.01-0.1-0.03-0.1h-0.13a0.943,0.943,0,0,0-.1.1,1.587,1.587,0,0,1-.07.2,0.474,0.474,0,0,0-.07.5,0.4,0.4,0,0,0,.22.2h0.04a0.518,0.518,0,0,0,.76.1,1.09,1.09,0,0,0,.58-0.6,0.51,0.51,0,0,0-.08-0.4h-0.11m6.66-4.4a1.931,1.931,0,0,0-.32.5h-0.1c-0.1-.1.19-0.4,0.09-0.5a0.335,0.335,0,0,0-.41.1s-0.13.2-.27,0.4a0.385,0.385,0,0,0-.05.5,0.3,0.3,0,0,0,.27-0.3c0.01,0,0,0-.01-0.1a0.183,0.183,0,0,0,.03-0.1,0.076,0.076,0,0,1,.06-0.1,0.812,0.812,0,0,1,.09.1,0.618,0.618,0,0,1,.03.3,0.539,0.539,0,0,0-.13.5c0.02,0.1.15,0.1,0.2,0,0.06,0,.05,0,0.09-0.2,0.01,0,.11-0.1.12-0.1a0.326,0.326,0,0,1,.07-0.2,0.468,0.468,0,0,1,.21.4c0.01,0.1-.01.2-0.06,0.2a0.141,0.141,0,0,0-.04.2,0.262,0.262,0,0,0,.22.1,0.564,0.564,0,0,0,.16-0.6,0.544,0.544,0,0,0-.1-0.3c-0.06-.1-0.03-0.1-0.06-0.1a0.188,0.188,0,0,0-.13-0.1,0.312,0.312,0,0,1,.16-0.2,0.454,0.454,0,0,1,.14-0.2c0.04-.2-0.2-0.2-0.26-0.2m-0.96.2c0.16-.2.27-0.4,0.37-0.5,0.05-.1.12-0.1,0.17-0.2s0.11,0,.16,0a0.225,0.225,0,0,0,.24-0.2,0.164,0.164,0,0,0-.16-0.2c-0.23-.1-0.4.4-0.53,0.3a0.352,0.352,0,0,1-.03-0.2,1.459,1.459,0,0,0-.12-0.4c-0.06-.1-0.11,0-0.17-0.1-0.05,0-.09-0.1-0.15-0.1a0.237,0.237,0,0,0-.25.3,0.781,0.781,0,0,1,.03.4h-0.18a0.781,0.781,0,0,0-.1-0.3,0.136,0.136,0,0,0-.14.1,0.459,0.459,0,0,1-.05.3c-0.04,0-.1-0.1-0.14-0.1a1.825,1.825,0,0,0-.05.4,0.348,0.348,0,0,0-.03.4c0.05,0.1.16,0.2,0.22,0.3a0.63,0.63,0,0,1,.19.3c-0.01.1-.04,0-0.09,0.1a0.805,0.805,0,0,0,.37.6h0.21a1.447,1.447,0,0,0-.25-0.4,1.293,1.293,0,0,1,.28-0.5,1.046,1.046,0,0,1,.2-0.3m-0.52.3a0.632,0.632,0,0,0-.17-0.1,1.655,1.655,0,0,1-.23-0.3,0.734,0.734,0,0,1,.05-0.2,0.527,0.527,0,0,1,.17.3c0.07,0.1.11,0,.14,0.2,0.02,0,.09.1,0.04,0.1m0.08-.5c-0.05.1-.07,0.1-0.11,0a0.249,0.249,0,0,1-.06-0.3c0.09-.2.09,0.1,0.1,0.1a0.9,0.9,0,0,1,.07.2m0.15-.9a1.38,1.38,0,0,0,.03-0.2h0.21a0.286,0.286,0,0,1,.06.3c-0.05,0-.12-0.1-0.16,0-0.04,0-.03.1,0.04,0.1a0.218,0.218,0,0,1,.11.1c0.01,0.1-.02.1-0.01,0.2h0.11a0.166,0.166,0,0,1-.11.2,0.421,0.421,0,0,1-.11-0.3,0.386,0.386,0,0,1-.17-0.4m0.04,0.9-0.03-.1c-0.07,0-.06-0.2-0.05-0.2,0.1-.1.25,0.3,0.08,0.3m-1.23,2.8a0.4,0.4,0,0,0-.54.1c-0.13,0-.3.1-0.39,0.1a1.2,1.2,0,0,1-.62,0c-0.08,0-.04.2,0.02,0.3a1.159,1.159,0,0,0,1,0,0.554,0.554,0,0,0,.34-0.2,0.369,0.369,0,0,0,.21-0.2c-0.01,0,.02-0.1-0.02-0.1m-1.19-.5a0.192,0.192,0,0,0-.07-0.3,0.171,0.171,0,0,0-.16.1,0.7,0.7,0,0,0-.19.2c-0.04,0-.09-0.2-0.02-0.2a0.726,0.726,0,0,0,.25-0.6c-0.05-.1-0.14-0.2-0.33,0a0.576,0.576,0,0,0-.29.4,3.019,3.019,0,0,1-.25.8,1.858,1.858,0,0,1-.2.1c-0.27.3-.42,0.5-0.27,0.7a0.317,0.317,0,0,0,.3,0,0.31,0.31,0,0,0,.16-0.1,2.489,2.489,0,0,1-.08.5,0.516,0.516,0,0,1-.17.3c-0.15.3-.19,0.3-0.14,0.4s0.16,0,.25,0a2.535,2.535,0,0,0,.5-1.2c0.02-.1.08-0.2,0.11-0.3a1.066,1.066,0,0,1,.06-0.3,2.951,2.951,0,0,0,.54-0.5m4.05-6.4-0.17.4,0.87,0.3,1.03,1.2,0.19-.4-0.7-.8h1.06l0.18-.4h-1.58Zm0.72-2.6,2.35,0.4,0.06-.4-2.35-.4Zm2.52-1.6a1.213,1.213,0,0,0-.11-0.3,1.235,1.235,0,0,0-.2-0.1,0.285,0.285,0,0,0-.27-0.1,0.514,0.514,0,0,0-.39.1,0.646,0.646,0,0,0-.25.3l-0.13.2c-0.03,0-.06.1-0.09,0.1a0.7,0.7,0,0,1-.08.1c-0.03,0-.06,0-0.09.1h-0.11a0.13,0.13,0,0,1-.15-0.1h-0.11a0.762,0.762,0,0,1-.06-0.2,0.34,0.34,0,0,1-.01-0.1,0.8,0.8,0,0,1,.06-0.3,0.428,0.428,0,0,1,.1-0.2h-0.38a0.963,0.963,0,0,0-.13.5,1.526,1.526,0,0,0,.03.3,1.3,1.3,0,0,0,.13.3,0.6,0.6,0,0,1,.21.2h0.54a0.14,0.14,0,0,0,.16-0.1,0.126,0.126,0,0,0,.14-0.1,0.3,0.3,0,0,0,.13-0.2l0.15-.2c0.02,0,.04-0.1.06-0.1a0.607,0.607,0,0,1,.07-0.1h0.08c0.04,0,.08-0.1.12-0.1a0.222,0.222,0,0,0,.2.1,0.658,0.658,0,0,1,.07.3,0.3,0.3,0,0,1-.05.2,0.41,0.41,0,0,1-.07.2l0.36,0.1a1.519,1.519,0,0,1,.06-0.2,1.032,1.032,0,0,0,.04-0.3,0.769,0.769,0,0,0-.03-0.3m-0.73,3-1.96-.5-0.12.4,1.97,0.5-0.14.5,0.34,0.1,0.38-1.4-0.34-.1Zm-10.82,8.8a0.422,0.422,0,0,0-.08.2,0.137,0.137,0,0,0,.06.1h0.11a0.236,0.236,0,0,0,.1-0.1,1.462,1.462,0,0,1,.05-0.2,0.113,0.113,0,0,0,.12-0.1h0.11a0.457,0.457,0,0,0,.02-0.2,0.159,0.159,0,0,1-.13-0.1,0.271,0.271,0,0,0-.15.1h-0.03c-0.06,0-.04-0.1-0.01-0.1a0.168,0.168,0,0,1,.02-0.1c0-.1-0.01-0.1-0.03-0.1-0.04-.1-0.1,0-0.18,0a0.406,0.406,0,0,0-.09.1,0.943,0.943,0,0,1-.1.1,1.178,1.178,0,0,0-.23.2,0.943,0.943,0,0,0-.1.1h-0.12a0.17,0.17,0,0,0-.2.1l-0.05.1a0.467,0.467,0,0,1-.05.1h-0.02a0.277,0.277,0,0,1,.01-0.2h0.01a0.239,0.239,0,0,1,.12-0.2c0.02,0,.04-0.1.06-0.1a0.08,0.08,0,0,0-.02-0.1,0.135,0.135,0,0,0-.15-0.1,3.125,3.125,0,0,0-.27.4,0.326,0.326,0,0,0-.07.2,0.736,0.736,0,0,0-.08.2,0.261,0.261,0,0,0,.06.2c0.05,0,.14.1,0.21,0h0.03a0.158,0.158,0,0,1,.1-0.1h0.1a0.117,0.117,0,0,0,.14.1,0.609,0.609,0,0,0,.14-0.2l0.03-.1a2.756,2.756,0,0,1,.38-0.5h0.1c0.02,0,.02,0,0.03.1h0.01c0.01,0.1.04,0.1,0.06,0.1h0.05c0,0.1-.04.1-0.07,0.1m-3.83.4c-0.15-.1-0.41.1-0.47,0a0.312,0.312,0,0,1,.06-0.2,0.158,0.158,0,0,0-.09-0.2c-0.04,0-.04-0.1.01-0.1,0.08,0,.11.1,0.19,0.1a0.369,0.369,0,0,0,.32-0.1c0.02-.1.02-0.2-0.04-0.2a0.772,0.772,0,0,0-.54-0.1,0.952,0.952,0,0,0-.61.1,0.113,0.113,0,0,0-.12.1,0.336,0.336,0,0,1-.13.2c-0.17.1-.23,0.3-0.25,0.2h-0.14c-0.02,0-.02-0.1.01-0.1h0.06a1.118,1.118,0,0,1,.25-0.2,0.457,0.457,0,0,0,.07-0.4,0.394,0.394,0,0,0-.3-0.2h-0.24a0.534,0.534,0,0,0-.26.4,0.337,0.337,0,0,0-.14.2c-0.05.2-.12,0.4-0.15,0.5a0.723,0.723,0,0,0-.04.5c0.02,0.1-.02.2,0.1,0.2,0.1,0.1.08-.3,0.12-0.5a0.471,0.471,0,0,1,.1-0.2h0.06c0.03,0-.03.1,0.02,0.1,0.09,0.1.15-.1,0.21,0,0.05,0-.03.1-0.11,0.2-0.14.1-.22,0.3-0.04,0.4a0.34,0.34,0,0,0,.23-0.2,0.564,0.564,0,0,1,.07-0.2,2.116,2.116,0,0,1,.12-0.2,0.467,0.467,0,0,0,.13-0.2,0.373,0.373,0,0,0,.22-0.2,0.378,0.378,0,0,0,.2-0.2h0.24a0.463,0.463,0,0,1-.27.3,0.828,0.828,0,0,0-.32.5,0.728,0.728,0,0,0-.03.4,0.121,0.121,0,0,0,.14.1,0.7,0.7,0,0,0,.21-0.4,0.351,0.351,0,0,1,.08-0.1,3.045,3.045,0,0,1-.21.9c-0.07.3-.09,0.4-0.12,0.6-0.01.1-.02,0.2,0.09,0.2a0.612,0.612,0,0,0,.28-0.5,1.481,1.481,0,0,1,.2-0.5,0.551,0.551,0,0,1,.4-0.1,0.761,0.761,0,0,1,.3-0.2,1.6,1.6,0,0,0,.23-0.5c0.03-.1,0-0.1-0.1-0.2m-1.91-.3c-0.16.1-.21,0.2-0.24,0.2-0.01.1-.05,0.1-0.05,0a0.54,0.54,0,0,1,.07-0.3,2.606,2.606,0,0,0,.2-0.3,0.272,0.272,0,0,1,.22-0.1,0.422,0.422,0,0,1-.08.2,0.934,0.934,0,0,1-.1.2c-0.03.1,0.06,0.1-.02,0.1m0.99,0.2c-0.06.1-.15,0.2-0.18,0.1a1.251,1.251,0,0,1,.21-0.3c0.1-.1.12,0,0.14,0a0.436,0.436,0,0,1-.17.2m0.5,0.7h-0.2a0.126,0.126,0,0,1-.07-0.1,0.492,0.492,0,0,0,.05-0.2h0.38a0.523,0.523,0,0,1-.16.3m-6.9-5.2a0.481,0.481,0,0,0-.39-0.1c-0.1,0-.01.1,0.01,0.1,0.03,0.1.05,0.1,0.07,0.1a0.964,0.964,0,0,1,.18.1c0.21,0.1.26-.1,0.13-0.2m-2.8-4.4h-0.6l-0.2-.8,0.51-.3-0.11-.5-2.11,1.3,0.12,0.5,2.5,0.2Zm-2.1-.1h0l1-.6,0.16,0.6h-1.16Zm7.63,6.9c-0.03,0,.09-0.2-0.09-0.2h-0.15a0.471,0.471,0,0,0-.1.1,2.36,2.36,0,0,0-.42-0.1,0.964,0.964,0,0,0-.43-0.2,0.168,0.168,0,0,1-.17.1,0.184,0.184,0,0,0,.03.3h0.49a0.755,0.755,0,0,1,.31.1,0.3,0.3,0,0,1-.09.2,0.676,0.676,0,0,1-.45,0h0.03a0.2,0.2,0,0,1,.17-0.1,0.762,0.762,0,0,0-.32-0.1h-0.16a0.833,0.833,0,0,0-.48.6c-0.08.2-.18,0.3-0.07,0.4,0.13,0.2.22,0,.32-0.2a0.366,0.366,0,0,1,.26-0.3,0.318,0.318,0,0,1,.32,0h-0.07a0.572,0.572,0,0,0-.18.1,1.34,1.34,0,0,0-.01.2c-0.01.1-.15,0-0.05,0.2h-0.14c-0.05-.1-0.14.1-0.15,0.1a2.86,2.86,0,0,1-.31.1,1.416,1.416,0,0,0-.64.2c-0.18.1-.15,0.2,0.04,0.3,0.09,0,.34-0.1.46-0.1,0.09,0,.27-0.1.35-0.1a0.941,0.941,0,0,1-.28.5c0.01,0.1.17,0.3,0.25,0.1a0.486,0.486,0,0,0,.12-0.2,0.3,0.3,0,0,1,.14-0.2,0.557,0.557,0,0,1,.14-0.2,0.407,0.407,0,0,1,.09.3,2.117,2.117,0,0,0,.75.8c0.17,0.1.32,0,.25-0.2-0.02-.1-0.03-0.1-0.04-0.1a1.569,1.569,0,0,0-.2-0.2,1.866,1.866,0,0,1-.35-0.3,0.945,0.945,0,0,1-.17-0.3c-0.02,0-.11-0.1.04-0.1a0.409,0.409,0,0,1,.11-0.2h0.27a1.022,1.022,0,0,0,.39-0.2,0.378,0.378,0,0,0,.28-0.4,1.035,1.035,0,0,0-.31-0.2c-0.07-.1-0.23,0-0.15-0.1,0.06-.1.07-0.1,0.15-0.1,0.13,0,.5.2,0.56,0a0.938,0.938,0,0,0-.34-0.3m-0.32.8a0.985,0.985,0,0,1-.35.3h-0.15c-0.08,0-.07,0,0.01-0.1a0.14,0.14,0,0,0,.08-0.2,0.141,0.141,0,0,1,.11-0.2,1.439,1.439,0,0,0,.3.2m-5.02-7-0.32.1,0.34,0.8-0.64.3-0.31-.7-0.32.1,0.31,0.7-0.58.3-0.32-.8-0.32.1,0.5,1.2,2.18-1Zm2.01,3.2a0.291,0.291,0,0,0-.13-0.1h-0.1c-0.05,0-.08,0-0.1.1-0.05.1,0.05,0.2,0.23,0.3,0.2,0.1.27-.2,0.1-0.3m0.45,0.9a0.594,0.594,0,0,1-.29-0.2,0.159,0.159,0,0,0-.05-0.1h-0.1a0.621,0.621,0,0,0-.4-0.3,0.386,0.386,0,0,0-.23-0.2c-0.09,0-.3,0-0.22.2a1.161,1.161,0,0,0,.42.2,0.537,0.537,0,0,1,.19.1c0.01,0.1-.01.1-0.04,0.1a1.366,1.366,0,0,0-.58-0.2c-0.19-.1-0.36-0.1-0.43.1a0.087,0.087,0,0,1-.09.1,0.4,0.4,0,0,0-.34,0,1.47,1.47,0,0,0-.13.1,0.762,0.762,0,0,0,.02.3,0.565,0.565,0,0,0-.22-0.1,0.141,0.141,0,0,0-.17.1c-0.04,0,0,0,.1.1a0.775,0.775,0,0,0,.47.3,1.624,1.624,0,0,1,.18.2c0.03,0-.05.1-0.12,0-0.15,0-.79-0.4-0.72,0a0.292,0.292,0,0,0,.19.2,0.309,0.309,0,0,1,.22.2,0.318,0.318,0,0,0-.2.3,0.117,0.117,0,0,0,.14.1,2.284,2.284,0,0,0,.36-0.3,0.956,0.956,0,0,0,.56.4c0.2-.1.18-0.3,0.12-0.3a4,4,0,0,1-.37-0.3c-0.04,0,.03-0.1.08-0.1,0.13-.1.31,0.2,0.5,0.4a0.7,0.7,0,0,1,.19.2,0.218,0.218,0,0,0,.37-0.1,1.308,1.308,0,0,0-.48-0.5c-0.18-.1-0.28-0.1-0.28-0.2s0.12,0,.12,0c0.16,0.1.91,0.2,0.89-.3-0.01-.1.12-0.1-0.03-0.3-0.01,0-.18-0.1-0.19-0.1-0.01-.1.07-0.1,0.15-0.1,0.1,0.1.26,0.3,0.28,0.3,0.22,0.1.39-.1,0.13-0.3m-1.43-.2a0.536,0.536,0,0,1,.53.1c0.03,0-.03.1-0.14,0.1a0.657,0.657,0,0,1-.39-0.2m-0.64.3c-0.02-.2.24-0.1,0.27-0.1,0.08,0.1-.26.2-0.27,0.1m0.72,0.2a1.224,1.224,0,0,1-.23.2,0.174,0.174,0,0,1-.18-0.1,0.442,0.442,0,0,1-.22-0.1h0.11c0.2-.2.28-0.3,0.37-0.2h0.17c0.11,0.1.17,0,.17,0.1a0.347,0.347,0,0,1-.19.1m0.75,0a0.974,0.974,0,0,1-.15.1c-0.02.1-.04,0.2,0.02,0.2,0.03,0-.01.1-0.08,0.1a0.467,0.467,0,0,1-.37-0.1,0.412,0.412,0,0,1,.29-0.2,0.337,0.337,0,0,1,.12-0.2,0.27,0.27,0,0,1,.17.1m9.92-10.8,3.17,2.2v-0.9l-3.17-2.3v1Zm-0.64-7.6a9.85,9.85,0,1,0,9.84,9.8,9.835,9.835,0,0,0-9.84-9.8m6.22,9h0a0.658,0.658,0,0,1,.15.9,0.7,0.7,0,0,1-.85.2h-0.01l-0.42-.3v0.9l1.13,0.8h0a0.658,0.658,0,0,1,.15.9,0.577,0.577,0,0,1-.85.1h-0.01l-0.42-.3v1l1.13,0.8h0a0.658,0.658,0,0,1,.15.9,0.676,0.676,0,0,1-.85.1h-0.01l-4.87-3.4v1l4.96,3.4h0.01a0.678,0.678,0,0,1,.15.9,0.589,0.589,0,0,1-.86.1h0l-4.26-2.9v3.3h0a0.636,0.636,0,0,1-1.27,0h0v-3.3l-4.26,2.9h0a0.589,0.589,0,0,1-.86-0.1,0.67,0.67,0,0,1,.16-0.9h0l4.96-3.4v-1l-4.87,3.4h-0.01a0.675,0.675,0,0,1-.85-0.1,0.658,0.658,0,0,1,.15-0.9h0l1.13-.8v-1l-0.42.3h-0.01a0.576,0.576,0,0,1-.85-0.1,0.658,0.658,0,0,1,.15-0.9h0l1.13-.8v-0.9l-0.42.3h-0.01a0.7,0.7,0,0,1-.85-0.2,0.658,0.658,0,0,1,.15-0.9h0l5.58-3.9v-0.9l-4.87,3.4h-0.01a0.6,0.6,0,0,1-.85-0.2,0.542,0.542,0,0,1,.15-0.8h0l1.13-.8v-1.5h0a0.645,0.645,0,0,1,.64-0.6,0.638,0.638,0,0,1,.64.6h0v0.6l3.17-2.2v-1.4h0a0.638,0.638,0,1,1,1.27,0h0v1.4l3.17,2.2v-0.6h0a0.641,0.641,0,0,1,1.28,0h0v1.5l1.13,0.8h0a0.542,0.542,0,0,1,.15.8,0.6,0.6,0,0,1-.85.2h-0.01l-4.87-3.4v0.9Zm-10.02,3.3,3.17-2.2v-1l-3.17,2.2v1Zm0-2.5,3.17-2.2v-1l-3.17,2.3v0.9Zm4.44,0.3,3.17,2.2v-1l-3.17-2.2v1Zm-0.64-16.2a15.95,15.95,0,1,0,15.98,15.9,15.936,15.936,0,0,0-15.98-15.9m0,31.3a15.35,15.35,0,1,1,15.36-15.4,15.4,15.4,0,0,1-15.36,15.4m10.82-15.4a10.815,10.815,0,1,0-10.82,10.8,10.855,10.855,0,0,0,10.82-10.8m-10.82,10.5a10.45,10.45,0,1,1,10.45-10.5,10.48,10.48,0,0,1-10.45,10.5" transform="translate(-1403.56 -10566.6)"/>
</svg>
